<?xml version="1.0" encoding="iso-8859-1"?>
<svg version="1.1" id="&#x56FE;&#x5C42;_1" xmlns="http://www.w3.org/2000/svg" xmlns:xlink="http://www.w3.org/1999/xlink" x="0px"
	 y="0px" viewBox="0 0 239.844 200" style="enable-background:new 0 0 239.844 200;" xml:space="preserve">
<g>
	<path style="fill:#FFFFFF;" d="M224.76,198.824H70.776C32.08,198.824,0.24,167,0.24,128.288c0-31.824,21.504-59.36,50.752-67.952
		C56.16,27.648,83.68,1.84,118.088,0.12c18.928-0.864,36.992,6.016,50.76,18.92c13.76,12.904,22.36,30.112,23.224,49.04V78.4
		c-0.864,7.736-7.744,12.904-15.488,12.04c-7.736-0.864-12.904-7.744-12.04-15.48v-6.024c-0.864-11.184-5.16-22.368-13.76-30.112
		c-8.608-7.736-19.792-12.04-30.976-11.176c-23.224,0.856-41.28,19.784-41.28,43.864c0,6.88-5.168,12.904-12.048,13.76
		c-21.504,2.584-37.848,21.512-37.848,43.016c0,24.088,19.784,43.016,43.008,43.016h153.976c7.744,0,13.76,6.016,13.76,13.76
		C239.376,192.808,231.64,198.824,224.76,198.824L224.76,198.824z"/>
	<g>
		<path style="fill:#FFFFFF;" d="M108.279,158.91H64.153l11.927-56.114h43.36l-2.223,10.458H86.611l-2.548,11.988h28.567
			l-2.223,10.457H81.84l-2.819,13.264h31.373L108.279,158.91z"/>
		<path style="fill:#FFFFFF;" d="M177.505,131.109c-4.887,18.197-16.199,27.802-33.928,28.822
			c-17.47-1.021-24.778-10.625-21.93-28.822c4.824-18.703,16.238-28.396,34.237-29.077
			C173.011,103.052,180.217,112.744,177.505,131.109z M163.477,131.109c2.151-11.733-1.222-17.854-10.125-18.364
			c-9.291,0.51-15.438,6.631-18.442,18.364c-2.12,11.565,1.36,17.6,10.434,18.109C154.729,149.05,160.775,143.013,163.477,131.109z"
			/>
		<path style="fill:#FFFFFF;" d="M182.54,141.311l13.04-2.551c-0.643,7.823,2.775,11.733,10.259,11.733
			c5.647-0.168,9.107-2.463,10.391-6.887c0.818-3.061-0.629-5.44-4.348-7.142c-3.927-1.53-7.452-2.551-10.572-3.062
			c-9.905-2.207-13.765-7.651-11.579-16.323c3.008-9.35,10.961-14.368,23.859-15.049c13.503-0.339,20.205,4.934,20.105,15.813
			l-12.986,2.296c0.304-5.44-2.601-8.162-8.723-8.162c-4.97,0.172-7.983,1.957-9.045,5.356c-0.993,3.061,1.834,5.356,8.483,6.887
			c5.186,1.191,9.281,2.722,12.287,4.591c5.227,3.403,7.277,8.162,6.147,14.283c-2.823,10.881-11.413,16.492-25.769,16.835
			C189.77,160.098,182.584,153.893,182.54,141.311z"/>
	</g>
</g>
</svg>
