<?xml version="1.0" standalone="no"?><!DOCTYPE svg PUBLIC "-//W3C//DTD SVG 1.1//EN" "http://www.w3.org/Graphics/SVG/1.1/DTD/svg11.dtd"><svg t="1629794421203" class="icon" viewBox="0 0 1228 1024" version="1.1" xmlns="http://www.w3.org/2000/svg" p-id="2153" xmlns:xlink="http://www.w3.org/1999/xlink" width="239.84375" height="200"><defs><style type="text/css"></style></defs><path d="M1150.7712 1017.97888H362.37312C164.2496 1017.97888 1.2288 855.04 1.2288 656.83456c0-162.93888 110.10048-303.9232 259.85024-347.91424C287.5392 141.55776 428.4416 9.4208 604.61056 0.6144c96.91136-4.42368 189.39904 30.80192 259.8912 96.8704 70.4512 66.06848 114.4832 154.17344 118.90688 251.0848V401.408c-4.42368 39.60832-39.64928 66.06848-79.29856 61.6448-39.60832-4.42368-66.06848-39.64928-61.6448-79.2576v-30.84288c-4.42368-57.26208-26.4192-114.52416-70.4512-154.17344-44.07296-39.60832-101.33504-61.6448-158.59712-57.22112-118.90688 4.38272-211.3536 101.29408-211.3536 224.58368 0 35.2256-26.46016 66.06848-61.68576 70.4512-110.10048 13.23008-193.78176 110.14144-193.78176 220.24192 0 123.33056 101.29408 220.24192 220.20096 220.24192h788.35712c39.64928 0 70.4512 30.80192 70.4512 70.4512s-39.60832 70.4512-74.83392 70.4512z" p-id="2154" fill="#d81e06"></path><path d="M331.5712 533.504h92.48768c57.26208 0 101.29408 22.03648 83.68128 88.10496-17.6128 61.6448-70.4512 92.48768-127.71328 92.48768h-30.84288l-22.03648 88.064H265.50272l66.06848-268.65664zM393.216 661.25824c30.84288 0 48.45568-13.23008 57.26208-39.64928 8.8064-26.4192-8.8064-35.2256-39.64928-35.2256h-26.4192l-17.6128 79.2576H393.216v-4.38272z m105.6768 83.68128c8.84736-44.07296 48.49664-66.06848 132.17792-74.87488 4.38272-17.6128-4.42368-26.4192-26.46016-26.4192-17.6128 0-35.2256 4.38272-57.22112 17.6128l-13.23008-44.07296c30.84288-17.6128 61.6448-26.4192 96.91136-26.4192 52.8384 0 74.87488 30.84288 57.22112 92.48768l-30.80192 114.52416h-48.45568v-22.03648c-22.03648 13.23008-44.032 26.46016-66.06848 26.46016-39.64928 4.38272-52.8384-26.46016-44.032-57.26208z m114.52416-4.42368l8.84736-30.80192c-39.64928 4.38272-57.26208 17.6128-61.68576 30.80192-4.38272 13.23008 4.42368 17.6128 17.6128 17.6128 13.23008 0 22.03648-8.8064 35.2256-17.6128z m101.33504 4.42368c8.8064-44.07296 48.41472-66.06848 132.096-74.87488 4.42368-17.6128-4.38272-26.4192-26.4192-26.4192-17.6128 0-35.2256 4.38272-57.26208 17.6128l-13.18912-44.07296c30.84288-17.6128 61.6448-26.4192 96.8704-26.4192 52.8384 0 74.87488 30.84288 57.26208 92.48768l-30.80192 114.52416h-52.8384v-22.03648c-22.03648 13.23008-44.07296 26.46016-66.10944 26.46016-30.80192 4.38272-48.41472-26.46016-39.60832-57.26208z m114.4832-4.42368l8.8064-30.80192c-39.60832 4.38272-57.26208 17.6128-61.6448 30.80192-4.42368 13.23008 4.42368 17.6128 17.6128 17.6128 13.23008 0 26.4192-8.8064 35.2256-17.6128z m96.91136 26.4192l48.45568-44.032c13.18912 17.6128 35.2256 26.4192 57.26208 26.4192 21.99552 0 35.2256-8.8064 39.60832-21.99552 4.42368-17.6128-8.8064-22.03648-30.80192-30.84288l-30.84288-13.23008c-26.4192-13.18912-44.032-35.2256-35.2256-74.87488 13.18912-44.032 61.6448-79.2576 118.90688-79.2576 30.84288 0 61.6448 13.23008 79.2576 35.2256l-44.032 39.64928c-13.18912-13.23008-30.84288-22.03648-48.45568-22.03648-17.6128 0-35.2256 8.8064-39.60832 22.03648-4.42368 13.18912 13.18912 22.03648 35.2256 30.84288l30.80192 13.18912c30.84288 13.23008 44.07296 35.2256 35.2256 74.87488-13.18912 44.032-57.22112 83.68128-123.2896 83.68128-39.64928 0-70.4512-13.18912-92.48768-39.64928z" p-id="2155" fill="#d81e06"></path></svg>